Coordinates
version=1
nRows=26
nColumns=24
inDegrees=yes

Units are S.I. units (second, meters, Newtons, ...)
Angles are in degrees.

endheader
time	pelvis_tilt	pelvis_list	pelvis_rotation	pelvis_tx	pelvis_ty	pelvis_tz	hip_flexion_r	hip_adduction_r	hip_rotation_r	knee_angle_r	ankle_angle_r	subtalar_angle_r	mtp_angle_r	hip_flexion_l	hip_adduction_l	hip_rotation_l	knee_angle_l	ankle_angle_l	subtalar_angle_l	mtp_angle_l	lumbar_extension	lumbar_bending	lumbar_rotation
      0.70916667	     -0.61968595	     -4.15570416	     -6.79519981	     -0.53588836	      1.01349470	      0.33807886	     12.21469393	      7.33541796	     -1.14659040	    -14.07561036	     -3.19080347	    -11.94093671	     -0.02222551	     15.99145834	    -10.07536434	    -11.28453951	    -67.46056714	      2.72439780	    -16.42552582	     -0.28465257	    -12.45619084	      5.02617076	      8.05689309
      0.71333333	     -0.61237906	     -4.08035934	     -6.85894474	     -0.53047435	      1.01441185	      0.33846655	     11.74568112	      7.26237411	     -1.02705623	    -13.84115856	     -3.05645312	    -11.95296998	     -0.02107057	     16.55573938	    -10.02169491	    -11.26297071	    -67.14060419	      2.99264716	    -16.47380399	     -0.30380372	    -12.46668634	      4.90509125	      8.11092239
      0.71750000	     -0.58338400	     -3.97618400	     -6.92596006	     -0.52510298	      1.01533506	      0.33883957	     11.27049356	      7.15408982	     -0.90028350	    -13.62861510	     -2.93818486	    -11.96847468	     -0.02104629	     17.07452656	     -9.92913117	    -11.25878599	    -66.72518059	      3.30638263	    -16.45422527	     -0.34959696	    -12.51875678	      4.73025099	      8.24090005
      0.72166667	     -0.47864490	     -3.85461992	     -7.08592235	     -0.51964226	      1.01642579	      0.33947345	     10.69250251	      7.04516420	     -0.65072055	    -13.38487121	     -2.80241110	    -11.96709805	     -0.02477829	     17.42805330	     -9.85962127	    -11.40756148	    -66.15689038	      3.48605811	    -16.45260216	     -0.51029726	    -12.63281521	      4.50199369	      8.52864007
      0.72583333	     -0.40619925	     -3.75311046	     -7.21401915	     -0.51421690	      1.01739658	      0.34002745	     10.15369724	      6.95267751	     -0.42525913	    -13.14206120	     -2.70626311	    -12.03247834	     -0.03621450	     17.81972027	     -9.80330484	    -11.52802878	    -65.54267912	      3.69476429	    -16.52955877	     -0.72421828	    -12.71940826	      4.30580333	      8.67599614
      0.73000000	     -0.43117528	     -3.68221689	     -7.24737058	     -0.50874313	      1.01813489	      0.34033878	      9.71805419	      6.87367083	     -0.33924229	    -12.89875410	     -2.60530880	    -12.06666566	     -0.03815856	     18.34083753	     -9.75195389	    -11.53879908	    -64.89873294	      3.90002538	    -16.57697964	     -0.75332943	    -12.67349521	      4.19357274	      8.71912865
      0.73416667	     -0.32466439	     -3.52930882	     -7.40010811	     -0.50328929	      1.01914206	      0.34089847	      9.15353506	      6.71688931	     -0.08632335	    -12.66582317	     -2.49670110	    -12.09224441	     -0.05150802	     18.62713991	     -9.63586218	    -11.72949526	    -64.07173308	      3.97107406	    -16.70702700	     -0.91655607	    -12.79105188	      3.93646213	      8.91907890
      0.73833333	     -0.25616483	     -3.41543792	     -7.49747537	     -0.49781793	      1.02001796	      0.34137631	      8.61821844	      6.59687325	      0.11373992	    -12.41219897	     -2.42021036	    -12.16023357	     -0.06804441	     18.95858804	     -9.55395588	    -11.86363532	    -63.21118360	      4.07095043	    -16.79087003	     -1.06628393	    -12.86275511	      3.71746166	      9.06588258
      0.74250000	     -0.18270119	     -3.30337807	     -7.60814813	     -0.49231375	      1.02086894	      0.34184286	      8.08117904	      6.47407151	      0.31221154	    -12.16979852	     -2.33104716	    -12.22248536	     -0.08745071	     19.24921850	     -9.47567691	    -12.03221830	    -62.26668318	      4.15455472	    -16.90864548	     -1.21580632	    -12.92791031	      3.52653337	      9.20507850
      0.74666667	     -0.17591271	     -3.20509970	     -7.65447294	     -0.48681759	      1.02153353	      0.34212754	      7.62039913	      6.35703977	      0.43398046	    -11.92874446	     -2.28577588	    -12.29648687	     -0.09889067	     19.62380590	     -9.38488627	    -12.11951886	    -61.29249345	      4.30056456	    -16.99940646	     -1.28290882	    -12.91815162	      3.37773753	      9.28184839
      0.75083333	      0.03918867	     -3.08555016	     -7.83414837	     -0.48131134	      1.02257976	      0.34277580	      6.91907925	      6.21997987	      0.75169471	    -11.66266624	     -2.15559588	    -12.33311479	     -0.13354098	     19.66467460	     -9.31662999	    -12.42437430	    -60.14958101	      4.27969226	    -17.17682797	     -1.48819288	    -13.16144549	      3.11715376	      9.51508755
      0.75500000	      0.12106516	     -2.98035857	     -7.93621075	     -0.47574950	      1.02333766	      0.34322211	      6.36781893	      6.09634834	      0.95027101	    -11.41015286	     -2.08646914	    -12.44404621	     -0.16962945	     19.86487044	     -9.24184066	    -12.63264358	    -58.98442635	      4.28533302	    -17.32124979	     -1.66294448	    -13.22704360	      2.92329583	      9.64245817
      0.75916667	      0.32243455	     -2.88713924	     -8.04896689	     -0.47018958	      1.02425104	      0.34368014	      5.67824624	      5.96501704	      1.16301892	    -11.13756752	     -2.01495275	    -12.51210151	     -0.23454825	     19.89055656	     -9.17035886	    -12.88152111	    -57.73333391	      4.34303076	    -17.36394226	     -1.93790665	    -13.43835206	      2.71612275	      9.85893721
      0.76333333	      0.35509134	     -2.78922366	     -8.13831390	     -0.46463620	      1.02481995	      0.34406519	      5.19094792	      5.84877021	      1.35983906	    -10.90737282	     -1.91981903	    -12.61443016	     -0.27476032	     20.10678107	     -9.09715327	    -13.09161688	    -56.45257419	      4.29121241	    -17.57104628	     -2.09567640	    -13.45242575	      2.54546167	      9.91901772
      0.76750000	      0.51353975	     -2.69222390	     -8.24582801	     -0.45905132	      1.02557662	      0.34447856	      4.55426398	      5.71230700	      1.57356554	    -10.64784162	     -1.83726274	    -12.70961387	     -0.32774891	     20.13088164	     -9.01561807	    -13.35777497	    -55.07065761	      4.26488808	    -17.69943986	     -2.28165017	    -13.61071164	      2.34587463	     10.07390477
      0.77166667	      0.69069851	     -2.61283429	     -8.35029993	     -0.45344541	      1.02631829	      0.34491127	      3.89324131	      5.59075317	      1.78006585	    -10.38699032	     -1.74549323	    -12.80170143	     -0.40800625	     20.10476452	     -8.95610032	    -13.64310989	    -53.62888466	      4.24305217	    -17.72583427	     -2.53544085	    -13.78714571	      2.15751207	     10.26923253
      0.77583333	      0.83584383	     -2.54039411	     -8.44423163	     -0.44784427	      1.02694105	      0.34528809	      3.27170589	      5.47702707	      1.98325633	    -10.13572366	     -1.65927924	    -12.91492222	     -0.49987988	     20.09743599	     -8.89541176	    -13.92207638	    -52.14280325	      4.22646016	    -17.81221371	     -2.80323817	    -13.93199174	      1.98983382	     10.41225825
      0.78000000	      0.89537525	     -2.47544608	     -8.52656757	     -0.44225639	      1.02735170	      0.34561372	      2.75474247	      5.38032929	      2.17863795	     -9.91139462	     -1.56028461	    -13.04112871	     -0.55993023	     20.17667283	     -8.84284484	    -14.18620033	    -50.62372001	      4.15989319	    -17.99716432	     -2.96648471	    -13.98254972	      1.85550980	     10.45903625
      0.78416667	      1.06916961	     -2.41373725	     -8.61930547	     -0.43664015	      1.02792451	      0.34596802	      2.10540863	      5.26705264	      2.37992445	     -9.66891701	     -1.46738665	    -13.15497015	     -0.63393021	     20.07970551	     -8.78242496	    -14.49986613	    -49.01077152	      4.11563169	    -18.05971465	     -3.15231230	    -14.15331267	      1.69116698	     10.59599434
      0.78833333	      1.16418178	     -2.37238360	     -8.70253042	     -0.43102441	      1.02830054	      0.34628827	      1.54630806	      5.18578042	      2.57565321	     -9.44460884	     -1.36302842	    -13.28124566	     -0.70962144	     20.05890073	     -8.74947176	    -14.80954084	    -47.37473757	      4.07226801	    -18.12197374	     -3.32762214	    -14.25037165	      1.56997548	     10.70962226
      0.79250000	      1.28448191	     -2.33362671	     -8.78807017	     -0.42539740	      1.02866531	      0.34660390	      0.96009804	      5.09922548	      2.77162809	     -9.22212108	     -1.24245697	    -13.39444582	     -0.79542852	     19.98065155	     -8.71520303	    -15.14983447	    -45.68008012	      4.01771935	    -18.15010646	     -3.51064549	    -14.37274957	      1.45227946	     10.82822766
      0.79666667	      1.39538327	     -2.32012573	     -8.85556573	     -0.41977694	      1.02894503	      0.34687733	      0.38654027	      5.03874280	      2.94724824	     -9.01093688	     -1.12976961	    -13.52087074	     -0.88416368	     19.89636667	     -8.69826971	    -15.48193142	    -43.94823250	      3.97127254	    -18.16328101	     -3.68377658	    -14.48441484	      1.36081436	     10.93092389
      0.80083333	      1.46427826	     -2.31437560	     -8.92775787	     -0.41415841	      1.02910389	      0.34712957	     -0.13200110	      4.98980067	      3.12457310	     -8.82398436	     -0.98812594	    -13.62413198	     -0.97892766	     19.83737117	     -8.69223130	    -15.83411337	    -42.17647010	      3.91155151	    -18.14585077	     -3.85440554	    -14.55399848	      1.29126806	     11.03641160
      0.80500000	      1.55303493	     -2.33671553	     -8.99323195	     -0.40854701	      1.02923231	      0.34737633	     -0.67071364	      4.96620304	      3.28498422	     -8.64848074	     -0.83223805	    -13.73449230	     -1.10516320	     19.73508452	     -8.71415577	    -16.21460516	    -40.36587519	      3.82522822	    -18.06621499	     -4.05960686	    -14.65394328	      1.25253939	     11.17462544
      0.80916667	      1.59946535	     -2.36822764	     -9.03947666	     -0.40293196	      1.02922320	      0.34753625	     -1.15853407	      4.95372752	      3.42729858	     -8.48550113	     -0.67901684	    -13.83009417	     -1.23558914	     19.66772687	     -8.73096058	    -16.57639546	    -38.52673678	      3.76600009	    -17.99078566	     -4.25108275	    -14.70593526	      1.23634039	     11.25172169
      0.81333333	      1.58552459	     -2.40304060	     -9.07198226	     -0.39730715	      1.02904748	      0.34762241	     -1.57185987	      4.94924148	      3.55073520	     -8.34391759	     -0.52225381	    -13.89811208	     -1.33830511	     19.65549904	     -8.74202070	    -16.92682780	    -36.66331080	      3.73562260	    -17.92732015	     -4.38766759	    -14.69061757	      1.24611605	     11.27519985
